<svg id="Layer_1" data-name="Layer 1" xmlns="http://www.w3.org/2000/svg" viewBox="0 0 33 29"><path d="M32.8,9.67A22.22,22.22,0,0,0,32,6.05a11.25,11.25,0,0,0-1-2.31C29.51,1.11,26.33.47,23.62.18a46.48,46.48,0,0,0-7-.09,69.13,69.13,0,0,1,6.9.66,13.92,13.92,0,0,1,4.84,1.54c1.89,1.1,2.52,3.12,3,5.2,1.19,5.32.57,11.23-2.71,15.63a10.33,10.33,0,0,1-3.56,2.69C20.65,28,14.59,29.08,9.55,27.55A19,19,0,0,0,16.43,27a23.45,23.45,0,0,0,7.29-3.18,18.11,18.11,0,0,0,4.37-4.19l.51-.74c.19-.29.44-.68.6-1A17.07,17.07,0,0,0,31,13.63a13.47,13.47,0,0,0,.46-2.52c0-.34,0-.68,0-1A14.48,14.48,0,0,1,30.56,14a2.25,2.25,0,0,1-.08.24l-.09.23c-.06.16-.12.31-.19.47s-.22.52-.3.69-.27.56-.33.68l-.05.11-.06.11-.36.66-.39.64-.41.62-.15.21-.44.6-.47.57c-.1.14-.38.44-.48.56s-.49.51-.69.72a18.2,18.2,0,0,1-1.47,1.3A21.34,21.34,0,0,1,20,25.21a26.45,26.45,0,0,1-7.48,2.13,14.67,14.67,0,0,1-3.31.1,13,13,0,0,1-3.8-2c2.63.61,6.68-.54,9.12-1.46,6.07-2.34,11.74-6.48,15-12.38.13-.22.28-.53.4-.76a8.71,8.71,0,0,0,.91-3,7,7,0,0,0-.09-2.28,7.45,7.45,0,0,1-.06,2.26,8.87,8.87,0,0,1-1,2.87c-.13.22-.3.52-.43.73C25.33,17.93,18.5,22.39,11.54,24.58a24.77,24.77,0,0,1-3.17.76,9.74,9.74,0,0,1-3,.11A11.64,11.64,0,0,1,3.78,24a13.26,13.26,0,0,1-.93-1.17c1.85.15,5.8-1,7.26-1.53a53.37,53.37,0,0,0,9.47-4.13,26.32,26.32,0,0,0,4.73-3.35l1.07-1a26.7,26.7,0,0,0,3-3.23,6.31,6.31,0,0,0,1.59-4.41,4.21,4.21,0,0,0-1-2.11,4.77,4.77,0,0,1,.57,1c.76,1.73-.05,3.43-1.08,4.82a26.3,26.3,0,0,1-3.57,3.74,27.84,27.84,0,0,1-3.59,2.82,54.8,54.8,0,0,1-9.14,4.62c-1.77.71-3.55,1.35-5.37,1.89a21.14,21.14,0,0,1-3.31.76,4.26,4.26,0,0,1-.61,0A14.17,14.17,0,0,1,1,19.13l.27-.25a4.1,4.1,0,0,1,.5-.35,28.4,28.4,0,0,1,3.24-1.68c1.06-.49,2.26-1,3.34-1.47,2.6-1.11,5.26-2.17,7.89-3.18.76-.3,1.53-.57,2.28-.87A35.2,35.2,0,0,0,23,9.2c1.55-.9,4.62-2.8,4.85-4.76.13-1.2-1-2-1.86-2.52A9.39,9.39,0,0,0,21.25.83a6,6,0,0,1,.61,0,10.68,10.68,0,0,1,1.77.36,7,7,0,0,1,3.53,2.11,1.44,1.44,0,0,1,.27,1c-.18,1.24-1.68,2.4-2.64,3.08a34.13,34.13,0,0,1-7,3.61l-1.71.65c-3,1.18-6,2.45-9,3.83C6.1,16.06,1.83,18,1,19.13a20.67,20.67,0,0,1-.9-4.27A4.13,4.13,0,0,1,1.22,14a27.33,27.33,0,0,1,3.85-1.77C9.43,10.54,14,9.16,18.44,7.69c.9-.29,1.79-.59,2.69-.92a11.77,11.77,0,0,0,2.61-1.24c.8-.53,1.64-1.44.9-2.42a4,4,0,0,0-1.56-1,6.35,6.35,0,0,0-1.39-.42,20.89,20.89,0,0,0-2.82-.35c-2.89-.15-8,0-10.25,2a3.05,3.05,0,0,0-.46.55,4.66,4.66,0,0,1,2.35-1.51,17,17,0,0,1,4.13-.72,29.82,29.82,0,0,1,5.59.19,9.78,9.78,0,0,1,2.67.67,4.22,4.22,0,0,1,1.15.7.83.83,0,0,1,.32,1,4.56,4.56,0,0,1-2.12,1.55c-.86.38-1.75.66-2.63,1C17.55,7.4,15,8.22,12.91,8.93a91.13,91.13,0,0,0-9.25,3.59,19,19,0,0,0-2.49,1.39,4.05,4.05,0,0,0-1,.95C.07,14.21,0,13.57,0,12.93a18.09,18.09,0,0,0,2.37,9.8l-.06,0,.06,0c2.7,4.38,7.6,6.58,14,6.24a22.31,22.31,0,0,0,11.68-3.91,7.41,7.41,0,0,0,1.24-1.2A18.75,18.75,0,0,0,32.8,9.67Z" transform="translate(0 0)"/><path d="M5.47,4.66C7,6,9.92,6.41,11.85,6.56A24.41,24.41,0,0,0,19.23,6,8.65,8.65,0,0,0,22.6,4.47c-2.42,1.36-7,1.37-9.77,1.17-1.64-.13-6.36-.65-7-2.33-.2-.5.56-.93.93-1.12a13.67,13.67,0,0,1,2.92-1C11.42.72,13.2.41,15,.09a28.16,28.16,0,0,0-4.59.19A18.25,18.25,0,0,0,7.67.79,4.83,4.83,0,0,0,5,2.28,1.81,1.81,0,0,0,5.47,4.66Z" transform="translate(0 0)"/><path d="M14.52,6.94h-.46c-1.08,0-2.17.07-3.24.17A36.79,36.79,0,0,0,5.31,8,15.54,15.54,0,0,0,1.79,9.3a5.79,5.79,0,0,0-.89.6,2.57,2.57,0,0,0-.55.63,5.7,5.7,0,0,1,2.42-1.3C6.6,8.06,10.59,7.65,14.52,6.94Z" transform="translate(0 0)"/><path d="M7.18,7.11a6.15,6.15,0,0,0,1,0,22.56,22.56,0,0,1-4-1.3A3.31,3.31,0,0,1,2.53,4.58,1.12,1.12,0,0,1,2.7,3.5a1.18,1.18,0,0,0,0,1.87A7.63,7.63,0,0,0,7.18,7.11Z" transform="translate(0 0)"/><path d="M3.52,8.23A2.21,2.21,0,0,0,4,8.12l-.51,0A2.78,2.78,0,0,1,.92,6,2.28,2.28,0,0,0,3.52,8.23Z" transform="translate(0 0)"/><path d="M19.81,3.11a12.71,12.71,0,0,1,1.52.27,2.53,2.53,0,0,1,.55.18.61.61,0,0,1,.16.12,3.43,3.43,0,0,0-1.43-.62c-2.75-.67-8.53-.84-10.39,1.72C12.11,2.7,17.22,2.82,19.81,3.11Z" transform="translate(0 0)"/></svg>